<?xml version="1.0" encoding="UTF-8" standalone="no"?>
<svg width="289px" height="250px" viewBox="0 0 289 250" version="1.1" xmlns="http://www.w3.org/2000/svg" xmlns:xlink="http://www.w3.org/1999/xlink">
	<path fill="#303030" stoke="#000000" stroke-width="1" d="M270.574,158.622 C268.845,171.603 269.98,186.309 262.763,192.491 C246.361,172.323 239.72,156.294 242.476,146.261 C245.818,134.089 233.138,102.394 200.46,70.909 L195.274,56.751 C156.641,14.275 82.182,-12.466 35.295,6.834 C95.538,15.438 126.096,47.541 126.096,47.541 C142.799,53.072 141.557,55.251 154.91,63.546 C139.58,58.153 138.707,56.92 121.957,53.491 C73.578,48.785 31.248,50.388 -0.354,77.089 C122.748,56.389 126.24,129.649 120.24,169.691 C124.998,161.389 129.63,154.386 134.287,141.002 C133.248,187.441 153.242,186.921 185.705,200.699 C206.939,209.714 237.013,245.957 251.955,243.57 C253.898,243.259 265.264,240.824 271.904,234.381 C288.504,238.819 282.457,177.76 270.574,158.622 L270.574,158.622 Z M198.118,138.316 C200.048,134.594 202.784,130.73 210.606,129.648 C212.423,143.107 220.181,150.765 220.194,170.321 C210.626,151.841 209.358,153.251 198.118,138.316 L198.118,138.316 Z M255.504,210.069 L255.504,210.069 Z"></path>
	<path fill="#FFFFFF" stroke="none" d="M198.118,138.316 C200.048,134.594 202.784,130.73 210.606,129.648 C212.423,143.107 220.181,150.765 220.194,170.321 C210.626,151.841 209.358,153.251 198.118,138.316 L198.118,138.316 Z M255.504,210.069 L255.504,210.069 Z"></path>
</svg>